<svg width="48" height="46" viewBox="0 0 48 46" fill="none" xmlns="http://www.w3.org/2000/svg">
<path d="M46.9688 1.02722H1.03125V6.06713H46.9688V1.02722Z" stroke="#0F73F6" stroke-width="1.12" stroke-miterlimit="10" stroke-linecap="round" stroke-linejoin="round"/>
<path d="M3.44922 30.9538V6.76306" stroke="#0F73F6" stroke-width="1.12" stroke-miterlimit="10" stroke-linecap="round" stroke-linejoin="round"/>
<path d="M44.5508 6.76306V30.9538" stroke="#0F73F6" stroke-width="1.12" stroke-miterlimit="10" stroke-linecap="round" stroke-linejoin="round"/>
<path d="M24 37.4355V39.1929" stroke="#0F73F6" stroke-width="1.12" stroke-miterlimit="10" stroke-linecap="round" stroke-linejoin="round"/>
<path d="M23.9994 44.9727C25.4553 44.9727 26.6356 43.7897 26.6356 42.3303C26.6356 40.8709 25.4553 39.6879 23.9994 39.6879C22.5435 39.6879 21.3633 40.8709 21.3633 42.3303C21.3633 43.7897 22.5435 44.9727 23.9994 44.9727Z" stroke="#0F73F6" stroke-width="1.12" stroke-miterlimit="10" stroke-linecap="round" stroke-linejoin="round"/>
<path d="M16.0714 26.804C20.4493 26.804 23.9982 23.2466 23.9982 18.8583C23.9982 14.47 20.4493 10.9126 16.0714 10.9126C11.6935 10.9126 8.14453 14.47 8.14453 18.8583C8.14453 23.2466 11.6935 26.804 16.0714 26.804Z" stroke="#0F73F6" stroke-width="1.12" stroke-miterlimit="10" stroke-linecap="round" stroke-linejoin="round"/>
<path d="M38.8885 10.9126H28.668V17.1771H38.8885V10.9126Z" stroke="#0F73F6" stroke-width="1.12" stroke-miterlimit="10" stroke-linecap="round" stroke-linejoin="round"/>
<path d="M28.668 21.5317H38.8885" stroke="#0F73F6" stroke-width="1.12" stroke-miterlimit="10" stroke-linecap="round" stroke-linejoin="round"/>
<path d="M28.668 25.6792H38.8885" stroke="#0F73F6" stroke-width="1.12" stroke-miterlimit="10" stroke-linecap="round" stroke-linejoin="round"/>
<path d="M46.9688 31.6497H1.03125V36.6896H46.9688V31.6497Z" stroke="#0F73F6" stroke-width="1.12" stroke-miterlimit="10" stroke-linecap="round" stroke-linejoin="round"/>
</svg>
