<?xml version="1.0" encoding="UTF-8"?>
<svg xmlns="http://www.w3.org/2000/svg" xmlns:xlink="http://www.w3.org/1999/xlink" width="0" height="0">
<symbol id="blockquote" width="48" height="38" viewBox="0 0 48 38" fill="none">
<path d="M4.53229 3.80003C1.86562 6.73336 0.265625 9.93336 0.265625 15.2667C0.265625 24.6 6.93229 32.8667 16.2656 37.1334L18.6656 33.6667C9.86563 28.8667 7.99896 22.7334 7.46563 18.7334C8.79896 19.5334 10.6656 19.8 12.5323 19.5334C17.3323 19 21.0656 15.2667 21.0656 10.2C21.0656 7.80003 19.999 5.40003 18.399 3.53336C16.5323 1.66669 14.399 0.866695 11.7323 0.866695C8.79896 0.866695 6.13229 2.20002 4.53229 3.80003ZM31.199 3.80003C28.5323 6.73336 26.9323 9.93336 26.9323 15.2667C26.9323 24.6 33.599 32.8667 42.9323 37.1334L45.3323 33.6667C36.5323 28.8667 34.6656 22.7334 34.1323 18.7334C35.4656 19.5334 37.3323 19.8 39.199 19.5334C43.999 19 47.7323 15.2667 47.7323 10.2C47.7323 7.80003 46.6656 5.40003 45.0656 3.53336C43.4656 1.66669 41.0656 0.866695 38.399 0.866695C35.4656 0.866695 32.799 2.20002 31.199 3.80003Z" fill="#0F73F6"/>
</symbol>
<symbol id="check" width="9" height="7" viewBox="0 0 9 7" fill="none">
<path fill-rule="evenodd" clip-rule="evenodd" d="M1.71929 2.30529C1.62704 2.20978 1.5167 2.1336 1.39469 2.08119C1.27269 2.02878 1.14147 2.00119 1.00869 2.00004C0.87591 1.99888 0.744231 2.02419 0.621334 2.07447C0.498438 2.12475 0.386786 2.199 0.292893 2.29289C0.199001 2.38679 0.124748 2.49844 0.0744668 2.62133C0.0241859 2.74423 -0.00111606 2.87591 3.77564e-05 3.00869C0.00119157 3.14147 0.0287774 3.27269 0.0811864 3.39469C0.133595 3.5167 0.209778 3.62704 0.305288 3.71929L2.30529 5.71929C2.49282 5.90676 2.74712 6.01207 3.01229 6.01207C3.27745 6.01207 3.53176 5.90676 3.71929 5.71929L7.71929 1.71929C7.8148 1.62704 7.89098 1.5167 7.94339 1.39469C7.9958 1.27269 8.02339 1.14147 8.02454 1.00869C8.02569 0.87591 8.00039 0.744231 7.95011 0.621335C7.89983 0.498438 7.82558 0.386787 7.73168 0.292894C7.63779 0.199001 7.52614 0.124748 7.40324 0.0744673C7.28035 0.0241864 7.14867 -0.00111606 7.01589 3.77557e-05C6.88311 0.00119157 6.75189 0.0287779 6.62988 0.0811869C6.50788 0.133596 6.39754 0.209779 6.30529 0.305289L3.01229 3.59829L1.71929 2.30529Z" fill="#F5F8FB"/>
</symbol>
<symbol id="check-list" width="16" height="16" viewBox="0 0 16 16" fill="none">
<g clip-path="url(#clip0_4959_3632)">
<path d="M15.7657 2.35924C15.4533 2.0468 14.9468 2.0468 14.6343 2.35924L5.04983 11.9438L1.3657 8.25971C1.0533 7.94727 0.546797 7.9473 0.234328 8.25971C-0.0781094 8.57211 -0.0781094 9.07861 0.234328 9.39105L4.48414 13.6408C4.79645 13.9532 5.30333 13.953 5.61552 13.6408L15.7657 3.49061C16.0781 3.17821 16.0781 2.67167 15.7657 2.35924Z" fill="#0265DC"/>
</g>
<defs>
<clipPath>
<rect width="16" height="16" fill="white"/>
</clipPath>
</defs>
</symbol>
<symbol id="chevron-down" width="16" height="16" viewBox="0 0 16 16" fill="none">
<path d="M4 6L8 10L12 6" stroke="#0D0D15" stroke-width="2" stroke-linecap="round" stroke-linejoin="round"/>
</symbol>
<symbol id="chevron-left" width="24" height="24" viewBox="0 0 24 24" fill="none">
<path d="M15 18L9 12L15 6" stroke="#0D0D15" stroke-width="2" stroke-linecap="round" stroke-linejoin="round"/>
</symbol>
<symbol id="chevron-right" width="24" height="24" viewBox="0 0 24 24" fill="none">
<path d="M9 18L15 12L9 6" stroke="#0D0D15" stroke-width="2" stroke-linecap="round" stroke-linejoin="round"/>
</symbol>
<symbol id="chevron-right-blue" width="16" height="16" viewBox="0 0 16 16" fill="none">
<path d="M6 12L10 8L6 4" stroke="#0265DC" stroke-width="2" stroke-linecap="round" stroke-linejoin="round"/>
</symbol>
<symbol id="chevron-up" width="16" height="16" viewBox="0 0 16 16" fill="none">
<path d="M12 10L8 6L4 10" stroke="#0D0D15" stroke-width="2" stroke-linecap="round" stroke-linejoin="round"/>
</symbol>
<symbol id="clean" width="15" height="14" viewBox="0 0 15 14" fill="none">
<path d="M13.5 1L1.5 13M1.5 1L13.5 13" stroke="#0D0D15" stroke-width="2" stroke-linecap="round" stroke-linejoin="round"/>
</symbol>
<symbol id="clock" width="24" height="24" viewBox="0 0 24 24" fill="none">
<path d="M12 6V12L16 14M22 12C22 17.5228 17.5228 22 12 22C6.47715 22 2 17.5228 2 12C2 6.47715 6.47715 2 12 2C17.5228 2 22 6.47715 22 12Z" stroke="#0265DC" stroke-width="2" stroke-linecap="round" stroke-linejoin="round"/>
</symbol>
<symbol id="facebook" width="24" height="24" viewBox="0 0 24 24" fill="none">
<path d="M2 12.0614C2.00116 17.0111 5.5784 21.2255 10.437 22.0012V14.9692H7.9V12.0614H10.44V9.84786C10.3265 8.79898 10.6825 7.75363 11.4116 6.99534C12.1408 6.23703 13.1674 5.84437 14.213 5.92385C14.9635 5.93604 15.7122 6.0033 16.453 6.12508V8.59922H15.189C14.7538 8.54187 14.3164 8.68647 13.9998 8.99229C13.6832 9.2981 13.5218 9.73203 13.561 10.1718V12.0614H16.332L15.889 14.9702H13.561V22.0012C18.8155 21.1657 22.5001 16.3373 21.9455 11.0141C21.3909 5.69079 16.7913 1.73615 11.4788 2.01511C6.16636 2.29407 2.00084 6.70896 2 12.0614Z" fill="#0D0D15"/>
</symbol>
<symbol id="filter" width="24" height="24" viewBox="0 0 24 24" fill="none">
<path d="M8.4 3H4.6C4.03995 3 3.75992 3 3.54601 3.10899C3.35785 3.20487 3.20487 3.35785 3.10899 3.54601C3 3.75992 3 4.03995 3 4.6V8.4C3 8.96005 3 9.24008 3.10899 9.45399C3.20487 9.64215 3.35785 9.79513 3.54601 9.89101C3.75992 10 4.03995 10 4.6 10H8.4C8.96005 10 9.24008 10 9.45399 9.89101C9.64215 9.79513 9.79513 9.64215 9.89101 9.45399C10 9.24008 10 8.96005 10 8.4V4.6C10 4.03995 10 3.75992 9.89101 3.54601C9.79513 3.35785 9.64215 3.20487 9.45399 3.10899C9.24008 3 8.96005 3 8.4 3Z" stroke="#F8F7FF" stroke-width="2" stroke-linecap="round" stroke-linejoin="round"/>
<path d="M19.4 3H15.6C15.0399 3 14.7599 3 14.546 3.10899C14.3578 3.20487 14.2049 3.35785 14.109 3.54601C14 3.75992 14 4.03995 14 4.6V8.4C14 8.96005 14 9.24008 14.109 9.45399C14.2049 9.64215 14.3578 9.79513 14.546 9.89101C14.7599 10 15.0399 10 15.6 10H19.4C19.9601 10 20.2401 10 20.454 9.89101C20.6422 9.79513 20.7951 9.64215 20.891 9.45399C21 9.24008 21 8.96005 21 8.4V4.6C21 4.03995 21 3.75992 20.891 3.54601C20.7951 3.35785 20.6422 3.20487 20.454 3.10899C20.2401 3 19.9601 3 19.4 3Z" stroke="#F8F7FF" stroke-width="2" stroke-linecap="round" stroke-linejoin="round"/>
<path d="M19.4 14H15.6C15.0399 14 14.7599 14 14.546 14.109C14.3578 14.2049 14.2049 14.3578 14.109 14.546C14 14.7599 14 15.0399 14 15.6V19.4C14 19.9601 14 20.2401 14.109 20.454C14.2049 20.6422 14.3578 20.7951 14.546 20.891C14.7599 21 15.0399 21 15.6 21H19.4C19.9601 21 20.2401 21 20.454 20.891C20.6422 20.7951 20.7951 20.6422 20.891 20.454C21 20.2401 21 19.9601 21 19.4V15.6C21 15.0399 21 14.7599 20.891 14.546C20.7951 14.3578 20.6422 14.2049 20.454 14.109C20.2401 14 19.9601 14 19.4 14Z" stroke="#F8F7FF" stroke-width="2" stroke-linecap="round" stroke-linejoin="round"/>
<path d="M8.4 14H4.6C4.03995 14 3.75992 14 3.54601 14.109C3.35785 14.2049 3.20487 14.3578 3.10899 14.546C3 14.7599 3 15.0399 3 15.6V19.4C3 19.9601 3 20.2401 3.10899 20.454C3.20487 20.6422 3.35785 20.7951 3.54601 20.891C3.75992 21 4.03995 21 4.6 21H8.4C8.96005 21 9.24008 21 9.45399 20.891C9.64215 20.7951 9.79513 20.6422 9.89101 20.454C10 20.2401 10 19.9601 10 19.4V15.6C10 15.0399 10 14.7599 9.89101 14.546C9.79513 14.3578 9.64215 14.2049 9.45399 14.109C9.24008 14 8.96005 14 8.4 14Z" stroke="#F8F7FF" stroke-width="2" stroke-linecap="round" stroke-linejoin="round"/>
</symbol>
<symbol id="fonts" width="150" height="150" viewBox="0 0 150 150" fill="none">
<path d="M75 60.9375V89.0625" stroke="#0F73F6" stroke-width="3.5" stroke-miterlimit="10" stroke-linecap="round" stroke-linejoin="round"/>
<path d="M65.625 60.9375H84.375" stroke="#0F73F6" stroke-width="3.5" stroke-miterlimit="10" stroke-linecap="round" stroke-linejoin="round"/>
<path d="M107.812 107.812H42.1875V42.1875H107.812V107.812Z" stroke="#0F73F6" stroke-width="3.5" stroke-miterlimit="10" stroke-linecap="round" stroke-linejoin="round"/>
<mask style="mask-type:luminance" maskUnits="userSpaceOnUse" x="0" y="0" width="150" height="150">
<path d="M0 1.52588e-05H150V150H0V1.52588e-05Z" fill="white"/>
</mask>
<g mask="url(#mask0_4350_3763)">
<path d="M23.4375 23.4375H4.39453V4.39453H23.4375V23.4375Z" stroke="#0F73F6" stroke-width="3.5" stroke-miterlimit="10" stroke-linecap="round" stroke-linejoin="round"/>
<path d="M23.4375 145.605H4.39453V126.563H23.4375V145.605Z" stroke="#0F73F6" stroke-width="3.5" stroke-miterlimit="10" stroke-linecap="round" stroke-linejoin="round"/>
<path d="M145.605 145.605H126.562V126.563H145.605V145.605Z" stroke="#0F73F6" stroke-width="3.5" stroke-miterlimit="10" stroke-linecap="round" stroke-linejoin="round"/>
<path d="M14.0625 23.4375V126.562" stroke="#0F73F6" stroke-width="3.5" stroke-miterlimit="10" stroke-linecap="round" stroke-linejoin="round"/>
<path d="M126.562 23.4375H145.605V4.39453H126.562V23.4375Z" stroke="#0F73F6" stroke-width="3.5" stroke-miterlimit="10" stroke-linecap="round" stroke-linejoin="round"/>
<path d="M135.938 42.1875V51.5625" stroke="#0F73F6" stroke-width="3.5" stroke-miterlimit="10" stroke-linecap="round" stroke-linejoin="round"/>
<path d="M135.938 70.3125V79.6875" stroke="#0F73F6" stroke-width="3.5" stroke-miterlimit="10" stroke-linecap="round" stroke-linejoin="round"/>
<path d="M135.938 98.4375V107.812" stroke="#0F73F6" stroke-width="3.5" stroke-miterlimit="10" stroke-linecap="round" stroke-linejoin="round"/>
<path d="M23.4375 14.0625H126.562" stroke="#0F73F6" stroke-width="3.5" stroke-miterlimit="10" stroke-linecap="round" stroke-linejoin="round"/>
<path d="M107.812 135.938H98.4375" stroke="#0F73F6" stroke-width="3.5" stroke-miterlimit="10" stroke-linecap="round" stroke-linejoin="round"/>
<path d="M79.6875 135.938H70.3125" stroke="#0F73F6" stroke-width="3.5" stroke-miterlimit="10" stroke-linecap="round" stroke-linejoin="round"/>
<path d="M51.5625 135.938H42.1875" stroke="#0F73F6" stroke-width="3.5" stroke-miterlimit="10" stroke-linecap="round" stroke-linejoin="round"/>
</g>
</symbol>
<symbol id="heard" width="21" height="19" viewBox="0 0 21 19" fill="none">
<path d="M18.5013 10.5721L11.0013 18.0001L3.50128 10.5721C3.00658 10.0907 2.61692 9.51207 2.35683 8.87269C2.09673 8.23331 1.97184 7.54701 1.99002 6.85699C2.00819 6.16697 2.16904 5.48819 2.46244 4.86339C2.75583 4.23859 3.17541 3.68131 3.69476 3.22663C4.21411 2.77196 4.82198 2.42974 5.48009 2.22154C6.1382 2.01333 6.83228 1.94364 7.51865 2.01686C8.20501 2.09007 8.86878 2.30461 9.46815 2.64696C10.0675 2.98931 10.5895 3.45205 11.0013 4.00605C11.4148 3.45608 11.9374 2.99738 12.5364 2.65866C13.1353 2.31994 13.7978 2.1085 14.4822 2.03757C15.1666 1.96665 15.8584 2.03775 16.5141 2.24645C17.1697 2.45514 17.7753 2.79693 18.2928 3.25042C18.8104 3.70391 19.2287 4.25934 19.5217 4.88195C19.8147 5.50456 19.976 6.18094 19.9956 6.86876C20.0152 7.55659 19.8925 8.24105 19.6354 8.8793C19.3783 9.51756 18.9922 10.0959 18.5013 10.5781" stroke="#273544" stroke-opacity="0.55" stroke-width="2" stroke-linecap="round" stroke-linejoin="round"/>
</symbol>
<symbol id="Illustration" width="150" height="150" viewBox="0 0 150 150" fill="none">
<path d="M9.08203 79.8253H18.6349C23.8957 79.8253 28.1604 75.5605 28.1604 70.2997C28.1604 65.0389 32.4252 60.7741 37.686 60.7741H50.6408C58.8478 60.7741 65.5008 54.1211 65.5008 45.9142C65.5008 37.7072 58.8478 31.0542 50.6408 31.0542" stroke="#0F73F6" stroke-width="3.5" stroke-miterlimit="10" stroke-linejoin="round"/>
<path d="M105.508 114.551C117.958 114.551 128.051 104.458 128.051 92.0075C128.051 82.3943 122.034 74.1865 113.56 70.9451" stroke="#0F73F6" stroke-width="3.5" stroke-miterlimit="10" stroke-linejoin="round"/>
<path d="M94.408 69.4648H70.1549C65.2916 69.4648 61.3491 73.4073 61.3491 78.2706C61.3491 83.1339 57.4066 87.0764 52.5434 87.0764H51.237C43.6503 87.0764 37.5 93.2267 37.5 100.813C37.4997 108.4 43.65 114.551 51.2367 114.551" stroke="#0F73F6" stroke-width="3.5" stroke-miterlimit="10" stroke-linejoin="round"/>
<path d="M92.961 114.551V120.996C92.961 124.555 90.0753 127.441 86.5157 127.441H63.4805C59.9209 127.441 57.0352 124.555 57.0352 120.996V114.551" stroke="#0F73F6" stroke-width="3.5" stroke-miterlimit="10" stroke-linejoin="round"/>
<path d="M118.117 65.296L103.066 54.7573" stroke="#0F73F6" stroke-width="3.5" stroke-miterlimit="10" stroke-linejoin="round"/>
<path d="M133.887 140.332H16.1133C8.99385 140.332 3.22266 134.561 3.22266 127.441V114.551H146.777V127.441C146.777 134.561 141.006 140.332 133.887 140.332Z" stroke="#0F73F6" stroke-width="3.5" stroke-miterlimit="10" stroke-linecap="round" stroke-linejoin="round"/>
<path d="M95.6289 69.3617C98.8492 61.6341 104.445 51.7045 111.636 41.4339C125.93 21.021 141.114 6.9919 145.551 10.0988C149.988 13.2058 141.998 32.2725 127.705 52.6854C120.488 62.9923 113.044 71.6718 106.871 77.3396" stroke="#0F73F6" stroke-width="3.5" stroke-miterlimit="10" stroke-linecap="round" stroke-linejoin="round"/>
<path d="M83.4253 84.0278C84.2717 88.3743 83.2284 92.6431 80.875 95.9941C89.3099 99.3969 99.2289 96.8654 104.93 89.3944C109.201 83.7975 108.195 75.7005 102.424 71.6686C96.8945 67.8058 89.28 69.1517 85.4102 74.6783C83.4288 77.5081 82.8133 80.8854 83.4253 84.0278Z" stroke="#0F73F6" stroke-width="3.5" stroke-miterlimit="10" stroke-linecap="round" stroke-linejoin="round"/>
<path d="M140.918 114.551V42.7734C140.918 40.1089 140.029 37.6521 138.531 35.6836" stroke="#0F73F6" stroke-width="3.5" stroke-miterlimit="10" stroke-linejoin="round"/>
<path d="M119.241 31.0547H20.8008C14.3288 31.0547 9.08203 36.3015 9.08203 42.7734V114.551" stroke="#0F73F6" stroke-width="3.5" stroke-miterlimit="10" stroke-linejoin="round"/>
</symbol>
<symbol id="kits" width="150" height="150" viewBox="0 0 150 150" fill="none">
<mask style="mask-type:luminance" maskUnits="userSpaceOnUse" x="0" y="0" width="150" height="150">
<path d="M0 1.52588e-05H150V150H0V1.52588e-05Z" fill="white"/>
</mask>
<g mask="url(#mask0_4350_3721)">
<path d="M42.2741 143.038H100.116C100.913 143.038 101.578 142.382 101.578 141.576V138.146C101.578 135.447 99.3687 133.246 96.6778 133.246H45.7039C43.0133 133.246 40.8125 135.447 40.8125 138.146V141.576C40.8125 142.382 41.4685 143.038 42.2741 143.038Z" stroke="#0265DC" stroke-width="3.5" stroke-miterlimit="10" stroke-linecap="round" stroke-linejoin="round"/>
<path d="M51.7344 133.246L55.6461 120.166M86.7468 120.166L90.65 133.246" stroke="#0265DC" stroke-width="3.5" stroke-miterlimit="10" stroke-linecap="round" stroke-linejoin="round"/>
<path d="M18.1562 109.054H112.821" stroke="#0265DC" stroke-width="3.5" stroke-miterlimit="10" stroke-linecap="round" stroke-linejoin="round"/>
<path d="M2.19531 81.6397C2.19531 83.7658 3.93086 85.5095 6.05693 85.5095H93.1645C95.2905 85.5095 97.0261 83.7658 97.0261 81.6397V10.8239C97.0261 8.69781 95.2905 6.96226 93.1645 6.96226H6.05693C3.93086 6.96226 2.19531 8.69781 2.19531 10.8239V81.6397Z" stroke="#0265DC" stroke-width="3.5" stroke-miterlimit="10" stroke-linecap="round" stroke-linejoin="round"/>
<path d="M66.124 120.166H22.1591C19.9583 120.166 18.1562 118.364 18.1562 116.163V85.5096M112.821 120.166H76.2309M97.0258 46.5931H120.229C122.429 46.5931 124.232 48.3951 124.232 50.5959V90.6005" stroke="#0265DC" stroke-width="3.5" stroke-miterlimit="10" stroke-linecap="round" stroke-linejoin="round"/>
<path d="M54.6892 27.4585H97.0264M2.19531 27.4585H44.5407" stroke="#0265DC" stroke-width="3.5" stroke-miterlimit="10" stroke-linecap="round" stroke-linejoin="round"/>
<path d="M85.4062 17.2021V17.2188" stroke="#0265DC" stroke-width="3.5" stroke-miterlimit="10" stroke-linecap="round" stroke-linejoin="round"/>
<path d="M74.5469 17.2021V17.2188" stroke="#0265DC" stroke-width="3.5" stroke-miterlimit="10" stroke-linecap="round" stroke-linejoin="round"/>
<path d="M63.6836 17.2021V17.2188" stroke="#0265DC" stroke-width="3.5" stroke-miterlimit="10" stroke-linecap="round" stroke-linejoin="round"/>
<path d="M13.8125 17.2021L36.3017 17.2188" stroke="#0265DC" stroke-width="3.5" stroke-miterlimit="10" stroke-linecap="round" stroke-linejoin="round"/>
<path d="M84.2273 38.7781H51.6896C50.8758 38.7781 50.2031 39.4426 50.2031 40.2646V50.0729C50.2031 50.8947 50.8758 51.5674 51.6896 51.5674H84.2273C85.0412 51.5674 85.7139 50.8947 85.7139 50.0729V40.2646C85.7139 39.4426 85.0412 38.7781 84.2273 38.7781Z" stroke="#0265DC" stroke-width="3.5" stroke-miterlimit="10" stroke-linecap="round" stroke-linejoin="round"/>
<path d="M85.7136 63.7842H50.2031" stroke="#0265DC" stroke-width="3.5" stroke-miterlimit="10" stroke-linecap="round" stroke-linejoin="round"/>
<path d="M67.5349 74.1902H85.7136M50.2031 74.1902H55.626" stroke="#0265DC" stroke-width="3.5" stroke-miterlimit="10" stroke-linecap="round" stroke-linejoin="round"/>
<path d="M130.313 134.251H130.238" stroke="#0265DC" stroke-width="3.5" stroke-miterlimit="10" stroke-linecap="round" stroke-linejoin="round"/>
<path d="M116.865 143.038H143.747C145.972 143.038 147.8 141.219 147.8 138.985V94.645C147.8 92.4193 145.972 90.6006 143.747 90.6006H116.865C114.639 90.6006 112.82 92.4193 112.82 94.645V138.985C112.82 141.219 114.639 143.038 116.865 143.038Z" stroke="#0265DC" stroke-width="3.5" stroke-miterlimit="10" stroke-linecap="round" stroke-linejoin="round"/>
<path d="M15.0028 38.7782H37.4006C38.2227 38.7782 38.8953 39.4426 38.8953 40.2647V72.6955C38.8953 73.5175 38.2227 74.1902 37.4006 74.1902H15.0028C14.1808 74.1902 13.5078 73.5175 13.5078 72.6955V40.2647C13.5078 39.4426 14.1808 38.7782 15.0028 38.7782Z" stroke="#0265DC" stroke-width="3.5" stroke-miterlimit="10" stroke-linecap="round" stroke-linejoin="round"/>
</g>
</symbol>
<symbol id="list" width="24" height="24" viewBox="0 0 24 24" fill="none">
<path d="M21 12L9 12M21 6L9 6M21 18L9 18M5 12C5 12.5523 4.55228 13 4 13C3.44772 13 3 12.5523 3 12C3 11.4477 3.44772 11 4 11C4.55228 11 5 11.4477 5 12ZM5 6C5 6.55228 4.55228 7 4 7C3.44772 7 3 6.55228 3 6C3 5.44772 3.44772 5 4 5C4.55228 5 5 5.44772 5 6ZM5 18C5 18.5523 4.55228 19 4 19C3.44772 19 3 18.5523 3 18C3 17.4477 3.44772 17 4 17C4.55228 17 5 17.4477 5 18Z" stroke="#0D0D15" stroke-width="2" stroke-linecap="round" stroke-linejoin="round"/>
</symbol>
<symbol id="logo-big" width="300" height="58" viewBox="0 0 300 58" fill="none">
<path d="M0 53.5402V4.14282H21.9882C25.9347 4.14282 29.42 4.73957 32.4441 5.93306C35.5193 7.12656 37.9283 8.89469 39.6709 11.2375C41.4136 13.5803 42.2849 16.4756 42.2849 19.9235C42.2849 23.2829 41.388 26.134 39.594 28.4768C37.8514 30.8196 35.4424 32.6098 32.3672 33.8475C29.3432 35.041 25.8835 35.6378 21.9882 35.6378H11.9167V53.5402H0ZM11.9167 26.6866H22.065C23.7564 26.6866 25.2172 26.3993 26.4473 25.8246C27.6774 25.25 28.6256 24.4543 29.2919 23.4376C30.0095 22.421 30.3683 21.2496 30.3683 19.9235C30.3683 18.5531 30.0095 17.3597 29.2919 16.343C28.6256 15.3263 27.6774 14.5306 26.4473 13.956C25.2172 13.3813 23.7564 13.094 22.065 13.094H11.9167V26.6866Z" fill="#0265DC"/>
<path d="M47.5447 53.5402V17.3376H59.0769V53.5402H47.5447ZM47.5447 14.0886V4.14282H59.0769V14.0886H47.5447Z" fill="#0265DC"/>
<path d="M62.6724 53.5402L77.3568 35.3726L62.5955 17.3376H75.9729L87.0438 31.3943H81.2008L92.2718 17.3376H105.649L90.8879 35.3726L105.495 53.5402H92.1949L81.3546 39.4835H86.8901L76.0498 53.5402H62.6724Z" fill="#0265DC"/>
<path d="M109.188 53.5402V17.3376H119.952V26.1561L118.798 24.6974C119.413 21.9126 120.9 19.8572 123.257 18.531C125.615 17.2049 128.434 16.5419 131.714 16.5419C135.2 16.5419 138.249 17.3155 140.863 18.8626C143.529 20.3655 145.194 22.3988 145.861 24.9626L142.555 25.2279C143.939 22.2662 145.912 20.0782 148.475 18.6637C151.037 17.2491 154.036 16.5419 157.47 16.5419C160.494 16.5419 163.159 17.1165 165.466 18.2658C167.823 19.4151 169.668 21.0285 171.001 23.1061C172.334 25.1395 173 27.5264 173 30.2671V53.5402H161.468V32.3888C161.468 30.9743 161.16 29.7587 160.545 28.742C159.981 27.7254 159.161 26.9297 158.085 26.3551C157.009 25.7804 155.702 25.4931 154.164 25.4931C152.678 25.4931 151.371 25.7804 150.243 26.3551C149.167 26.9297 148.321 27.7254 147.706 28.742C147.142 29.7587 146.86 30.9743 146.86 32.3888V53.5402H135.328V32.3888C135.328 30.9743 135.02 29.7587 134.405 28.742C133.842 27.7254 133.021 26.9297 131.945 26.3551C130.869 25.7804 129.562 25.4931 128.024 25.4931C126.538 25.4931 125.231 25.7804 124.103 26.3551C123.027 26.9297 122.181 27.7254 121.566 28.742C121.002 29.7587 120.72 30.9743 120.72 32.3888V53.5402H109.188Z" fill="#0265DC"/>
<path d="M192.044 54.3358C189.02 54.3358 186.406 53.9159 184.202 53.076C181.998 52.2362 180.307 51.0427 179.128 49.4956C177.949 47.9042 177.36 46.0256 177.36 43.8596C177.36 41.8263 177.898 40.036 178.974 38.4889C180.051 36.8976 181.691 35.5715 183.895 34.5106C186.15 33.4497 188.943 32.6983 192.275 32.2562L205.114 30.466V37.7595L194.351 39.4172C192.711 39.6824 191.455 40.1465 190.584 40.8096C189.712 41.4284 189.277 42.3346 189.277 43.5281C189.277 44.6332 189.764 45.4952 190.737 46.114C191.711 46.7328 192.916 47.0423 194.351 47.0423C196.247 47.0423 197.913 46.6886 199.348 45.9814C200.783 45.2741 201.885 44.3238 202.654 43.1303C203.474 41.8926 203.884 40.5444 203.884 39.0857V29.6703C203.884 28.3 203.243 27.1507 201.962 26.2224C200.732 25.2942 199.041 24.83 196.888 24.83C194.838 24.83 193.018 25.3163 191.429 26.2888C189.892 27.2612 188.764 28.5431 188.047 30.1345L178.821 26.3551C179.641 24.3217 180.948 22.5757 182.742 21.117C184.536 19.6582 186.688 18.531 189.2 17.7354C191.711 16.9397 194.453 16.5419 197.426 16.5419C200.963 16.5419 204.089 17.0944 206.806 18.1995C209.522 19.3046 211.624 20.8517 213.11 22.8409C214.648 24.7858 215.416 27.0623 215.416 29.6703V53.5402H204.653V47.7053L207.267 47.3075C206.037 48.8988 204.679 50.2249 203.192 51.2858C201.706 52.3025 200.04 53.0539 198.195 53.5402C196.35 54.0706 194.3 54.3358 192.044 54.3358Z" fill="#0265DC"/>
<path d="M222.336 53.5402V17.3376H233.1V26.0235L232.331 24.7637C233.254 21.7137 234.766 19.6582 236.867 18.5974C239.02 17.4923 241.557 16.9397 244.478 16.9397H246.938V25.5594H243.325C240.506 25.5594 238.225 26.3109 236.483 27.8138C234.74 29.2725 233.869 31.35 233.869 34.0465V53.5402H222.336Z" fill="#0265DC"/>
<path d="M272.177 53.938C267.102 53.938 263.156 52.7666 260.337 50.4238C257.569 48.0368 256.185 44.7216 256.185 40.4781V25.9572H249.112V17.3376H249.497C251.649 17.3376 253.289 16.8734 254.417 15.9451C255.596 15.0169 256.185 13.6245 256.185 11.7679V9.11571H267.717V17.3376H277.558V25.9572H267.717V39.815C267.717 41.0527 267.974 42.0915 268.486 42.9314C268.999 43.727 269.793 44.3238 270.87 44.7216C271.946 45.1194 273.279 45.3183 274.867 45.3183C275.226 45.3183 275.636 45.2962 276.098 45.252C276.559 45.2078 277.046 45.1636 277.558 45.1194V53.5402C276.79 53.6286 275.918 53.717 274.944 53.8054C273.971 53.8938 273.048 53.938 272.177 53.938Z" fill="#0265DC"/>
<path d="M288.468 53.5402V43.5944H300V53.5402H288.468Z" fill="#0265DC"/>
</symbol>
<symbol id="logo-small" width="108" height="24" viewBox="0 0 108 24" fill="none">
<path d="M0 22.1546V1.71436H7.87385C9.28711 1.71436 10.5352 1.96129 11.6181 2.45514C12.7193 2.949 13.5819 3.68065 14.206 4.65008C14.83 5.6195 15.142 6.81757 15.142 8.24427C15.142 9.6344 14.8208 10.8142 14.1784 11.7836C13.5544 12.753 12.6918 13.4938 11.5905 14.006C10.5076 14.4998 9.26875 14.7468 7.87385 14.7468H4.2673V22.1546H0ZM4.2673 11.0428H7.90138C8.50706 11.0428 9.03015 10.9239 9.47065 10.6861C9.91114 10.4483 10.2507 10.1191 10.4893 9.69841C10.7462 9.27772 10.8747 8.793 10.8747 8.24427C10.8747 7.67725 10.7462 7.18339 10.4893 6.76269C10.2507 6.342 9.91114 6.01276 9.47065 5.77498C9.03015 5.53719 8.50706 5.4183 7.90138 5.4183H4.2673V11.0428Z" fill="#0265DC"/>
<path d="M17.0255 22.1546V7.17424H21.1552V22.1546H17.0255ZM17.0255 5.82985V1.71436H21.1552V5.82985H17.0255Z" fill="#0265DC"/>
<path d="M22.4427 22.1546L27.7011 14.637L22.4151 7.17424H27.2055L31.17 12.9908H29.0776L33.0421 7.17424H37.8325L32.5465 14.637L37.7774 22.1546H33.0146L29.1327 16.3381H31.1149L27.2331 22.1546H22.4427Z" fill="#0265DC"/>
<path d="M39.0998 22.1546V7.17424H42.9541V10.8233L42.5411 10.2197C42.7614 9.06737 43.2936 8.21684 44.1379 7.6681C44.9822 7.11937 45.9917 6.84501 47.1663 6.84501C48.4144 6.84501 49.5065 7.1651 50.4425 7.80529C51.3969 8.42718 51.9934 9.26857 52.232 10.3295L51.0482 10.4392C51.5437 9.2137 52.2504 8.30829 53.1681 7.72298C54.0858 7.13766 55.1595 6.84501 56.3892 6.84501C57.4721 6.84501 58.4265 7.08279 59.2524 7.55836C60.0967 8.03393 60.7574 8.70155 61.2346 9.56123C61.7119 10.4026 61.9505 11.3903 61.9505 12.5244V22.1546H57.8208V13.4024C57.8208 12.817 57.7107 12.314 57.4904 11.8933C57.2885 11.4726 56.9949 11.1434 56.6094 10.9056C56.224 10.6678 55.756 10.5489 55.2054 10.5489C54.6731 10.5489 54.2051 10.6678 53.8013 10.9056C53.4159 11.1434 53.113 11.4726 52.8928 11.8933C52.6909 12.314 52.5899 12.817 52.5899 13.4024V22.1546H48.4603V13.4024C48.4603 12.817 48.3502 12.314 48.1299 11.8933C47.928 11.4726 47.6344 11.1434 47.2489 10.9056C46.8635 10.6678 46.3955 10.5489 45.8448 10.5489C45.3126 10.5489 44.8446 10.6678 44.4408 10.9056C44.0553 11.1434 43.7525 11.4726 43.5322 11.8933C43.3303 12.314 43.2294 12.817 43.2294 13.4024V22.1546H39.0998Z" fill="#0265DC"/>
<path d="M68.7702 22.4839C67.6873 22.4839 66.7512 22.3101 65.962 21.9626C65.1728 21.6151 64.5671 21.1212 64.145 20.481C63.7228 19.8225 63.5118 19.0452 63.5118 18.1489C63.5118 17.3075 63.7045 16.5667 64.0899 15.9265C64.4753 15.268 65.0627 14.7193 65.8519 14.2803C66.6595 13.8413 67.6598 13.5304 68.8528 13.3475L73.4504 12.6067V15.6247L69.5961 16.3106C69.0088 16.4204 68.5591 16.6124 68.2471 16.8868C67.9351 17.1429 67.7791 17.5179 67.7791 18.0117C67.7791 18.469 67.9534 18.8257 68.3021 19.0817C68.6509 19.3378 69.0822 19.4659 69.5961 19.4659C70.2752 19.4659 70.8717 19.3195 71.3856 19.0269C71.8995 18.7342 72.2941 18.341 72.5694 17.8471C72.8631 17.3349 73.0099 16.7771 73.0099 16.1735V12.2775C73.0099 11.7104 72.7805 11.2349 72.3217 10.8508C71.8812 10.4666 71.2755 10.2746 70.5046 10.2746C69.7705 10.2746 69.1189 10.4758 68.5499 10.8782C67.9993 11.2806 67.5955 11.811 67.3386 12.4695L64.0349 10.9056C64.3285 10.0642 64.7965 9.34174 65.4389 8.73813C66.0813 8.13453 66.8522 7.6681 67.7515 7.33886C68.6509 7.00962 69.6328 6.84501 70.6973 6.84501C71.9638 6.84501 73.0834 7.07364 74.0561 7.53092C75.0289 7.9882 75.7814 8.62839 76.3137 9.45148C76.8643 10.2563 77.1396 11.1983 77.1396 12.2775V22.1546H73.2852V19.7402L74.2213 19.5756C73.7808 20.2341 73.2944 20.7828 72.7622 21.2218C72.2299 21.6425 71.6334 21.9534 70.9727 22.1546C70.3119 22.3741 69.5778 22.4839 68.7702 22.4839Z" fill="#0265DC"/>
<path d="M79.6176 22.1546V7.17424H83.4719V10.7684L83.1966 10.2471C83.527 8.98506 84.0684 8.13453 84.8209 7.69554C85.5918 7.23826 86.5003 7.00962 87.5465 7.00962H88.4275V10.5764H87.1335C86.1241 10.5764 85.3073 10.8873 84.6833 11.5092C84.0592 12.1128 83.7472 12.9725 83.7472 14.0883V22.1546H79.6176Z" fill="#0265DC"/>
<path d="M97.4652 22.3193C95.6481 22.3193 94.2349 21.8345 93.2254 20.8651C92.2343 19.8774 91.7387 18.5056 91.7387 16.7496V10.741H89.2059V7.17424H89.3435C90.1144 7.17424 90.7017 6.98219 91.1055 6.59808C91.5277 6.21396 91.7387 5.63779 91.7387 4.86957V3.7721H95.8684V7.17424H99.3923V10.741H95.8684V16.4753C95.8684 16.9874 95.9601 17.4172 96.1437 17.7648C96.3272 18.094 96.6117 18.341 96.9971 18.5056C97.3826 18.6702 97.8598 18.7525 98.4287 18.7525C98.5572 18.7525 98.7041 18.7434 98.8692 18.7251C99.0344 18.7068 99.2088 18.6885 99.3923 18.6702V22.1546C99.117 22.1912 98.805 22.2278 98.4563 22.2644C98.1076 22.301 97.7772 22.3193 97.4652 22.3193Z" fill="#0265DC"/>
<path d="M103.299 22.1546V18.0391H107.429V22.1546H103.299Z" fill="#0265DC"/>
</symbol>
<symbol id="mail" width="24" height="24" viewBox="0 0 24 24" fill="none">
<path d="M2 7L10.1649 12.7154C10.8261 13.1783 11.1567 13.4097 11.5163 13.4993C11.8339 13.5785 12.1661 13.5785 12.4837 13.4993C12.8433 13.4097 13.1739 13.1783 13.8351 12.7154L22 7M6.8 20H17.2C18.8802 20 19.7202 20 20.362 19.673C20.9265 19.3854 21.3854 18.9265 21.673 18.362C22 17.7202 22 16.8802 22 15.2V8.8C22 7.11984 22 6.27976 21.673 5.63803C21.3854 5.07354 20.9265 4.6146 20.362 4.32698C19.7202 4 18.8802 4 17.2 4H6.8C5.11984 4 4.27976 4 3.63803 4.32698C3.07354 4.6146 2.6146 5.07354 2.32698 5.63803C2 6.27976 2 7.11984 2 8.8V15.2C2 16.8802 2 17.7202 2.32698 18.362C2.6146 18.9265 3.07354 19.3854 3.63803 19.673C4.27976 20 5.11984 20 6.8 20Z" stroke="#0265DC" stroke-width="2" stroke-linecap="round" stroke-linejoin="round"/>
</symbol>
<symbol id="map" width="24" height="24" viewBox="0 0 24 24" fill="none">
<path d="M12 22C13 17 20 16.4183 20 10C20 5.58172 16.4183 2 12 2C7.58172 2 4 5.58172 4 10C4 16.4183 11 17 12 22Z" stroke="#0265DC" stroke-width="2" stroke-linecap="round" stroke-linejoin="round"/>
<path d="M12 13C13.6569 13 15 11.6569 15 10C15 8.34315 13.6569 7 12 7C10.3431 7 9 8.34315 9 10C9 11.6569 10.3431 13 12 13Z" stroke="#0265DC" stroke-width="2" stroke-linecap="round" stroke-linejoin="round"/>
</symbol>
<symbol id="media" width="150" height="150" viewBox="0 0 150 150" fill="none">
<path fill-rule="evenodd" clip-rule="evenodd" d="M99.9734 98.6999H73.6484C72.6734 98.6999 71.9234 97.9499 71.9234 96.9749C71.9234 96.0749 72.6734 95.2499 73.6484 95.2499H99.9734V82.4999H95.9234H95.8484H95.7734H95.6984H95.5484L95.3984 82.4249H95.2484H95.0984H95.0234L94.8734 82.3499H94.7234L94.5734 82.2749H94.4984H94.3484L94.1984 82.1999L94.1234 82.1249H93.9734C93.8984 82.0499 93.8234 82.0499 93.7484 81.9749C93.5984 81.9749 93.4484 81.8999 93.3734 81.8249C91.6484 80.9249 90.5234 79.1249 90.5234 77.0249V49.9499C90.5234 48.2249 91.2734 46.7249 92.4734 45.7499L92.6234 45.6749L92.6984 45.5999L92.7734 45.5249H92.8484L92.9234 45.4499L92.9984 45.3749H93.0734V45.2999H93.1484L93.2234 45.2249H93.2984L93.3734 45.1499H93.4484L93.5234 45.0749C94.2734 44.6999 95.0984 44.4749 95.9234 44.4749H99.9734V41.9249C99.9734 39.8999 98.3984 38.3249 96.3734 38.3249H53.6234C51.5984 38.3249 50.0234 39.8999 50.0234 41.9249V51.2999H76.3484C77.3234 51.2999 78.0734 52.0499 78.0734 53.0249C78.0734 53.9249 77.3234 54.7499 76.3484 54.7499H50.0234V67.4999H54.0734H54.1484H54.2234H54.2984H54.3734H54.4484L54.5984 67.5749H54.7484H54.8234H54.8984H54.9734H55.0484L55.1234 67.6499H55.1984H55.2734L55.4234 67.7249H55.4984H55.6484V67.7999H55.7984L55.8734 67.8749H55.9484H56.0234L56.1734 67.9499L56.2484 68.0249H56.3984V68.0999H56.4734H56.5484L56.6234 68.1749L56.7734 68.2499L56.8484 68.3249L56.9984 68.3999H57.0734L57.1484 68.4749L57.2234 68.5499L57.2984 68.6249L57.3734 68.6999L57.4484 68.7749L57.5984 68.8499H57.6734V68.9249H57.7484V68.9999H57.8234V69.0749C57.8984 69.1499 57.9734 69.2249 58.1234 69.2999V69.3749L58.2734 69.5249L58.3484 69.5999L58.4234 69.6749V69.7499L58.4984 69.8999L58.5734 69.9749L58.6484 70.0499C58.6484 70.1249 58.7234 70.1999 58.7234 70.2749L58.7984 70.3499L58.8734 70.4249V70.4999L58.9484 70.5749V70.6499L59.0234 70.7249V70.8749L59.0984 70.9499C59.0984 71.0249 59.1734 71.0999 59.1734 71.0999V71.1749V71.2499H59.2484V71.3249V71.3999V71.4749V71.5499C59.3234 71.5499 59.3234 71.6249 59.3234 71.6999L59.3984 71.8499V71.9999V72.1499V72.2249L59.4734 72.3749V72.5249V72.6749V72.8249V72.9749V96.8249V100.05C59.4734 100.35 59.4734 100.65 59.3984 100.875C59.3984 101.025 59.3984 101.175 59.3234 101.25C59.3234 101.4 59.2484 101.55 59.2484 101.7L59.1734 101.775V101.85V101.925L59.0984 102.075C59.0984 102.15 59.0234 102.225 59.0234 102.3L58.9484 102.375V102.45L58.8734 102.525L58.7984 102.6V102.675L58.7234 102.75V102.825V102.9H58.6484V102.975L58.5734 103.05V103.125H58.4984V103.2H58.4234V103.275C58.3484 103.35 58.3484 103.35 58.3484 103.425L58.1984 103.5L58.1234 103.575V103.65C57.1484 104.775 55.6484 105.525 54.0734 105.525H50.0234V108.075C50.0234 110.1 51.5984 111.675 53.6234 111.675H96.3734C98.3984 111.675 99.9734 110.1 99.9734 108.075V98.6999ZM58.6484 70.0499C58.6484 70.1249 58.7234 70.1999 58.7234 70.2749L58.6484 70.0499ZM103.498 138.975H46.4984C42.0734 138.975 38.4734 135.375 38.4734 131.025V121.5V105.525H26.9234H26.7734L26.6234 105.45H26.5484H26.3984H26.2484H26.0984L25.9484 105.375H25.8734H25.7984H25.7234L25.5734 105.3C23.2484 104.7 21.5234 102.6 21.5234 100.05V72.9749C21.5234 69.9749 23.9234 67.4999 26.9234 67.4999H38.4734V28.4999V18.9749C38.4734 14.6249 42.0734 11.0249 46.4984 11.0249H103.498C107.923 11.0249 111.523 14.6249 111.523 18.9749V28.4249V28.4999V28.5749V44.4749H123.073C126.073 44.4749 128.473 46.9499 128.473 49.9499V77.0249C128.473 80.0249 126.073 82.4999 123.073 82.4999H111.523V121.5V131.025C111.523 135.375 107.923 138.975 103.498 138.975ZM40.1984 102.075H44.7734L41.8484 99.1499L41.7734 99.0749L32.2484 89.5499L24.8984 96.9749V100.05V100.125V100.2V100.275V100.35L24.9734 100.425V100.5V100.575V100.65L25.0484 100.725V100.8V100.875H25.1234V100.95V101.025L25.1984 101.1V101.175H25.2734V101.25L25.3484 101.325L25.4234 101.4L25.4984 101.475L25.5734 101.55V101.625H25.6484L25.7234 101.7L25.7984 101.775H25.8734L25.9484 101.85H26.0234L26.0984 101.925H26.1734H26.2484V102H26.3234H26.3984H26.4734L26.5484 102.075H26.6234H26.6984H26.7734H26.8484H26.9234H40.1984ZM93.9734 77.3249V77.3999V77.4749V77.5499V77.6249C94.0484 77.6249 94.0484 77.6999 94.0484 77.7749V77.8499H94.1234V77.9249V77.9999H94.1984V78.0749L94.2734 78.1499V78.2249H94.3484V78.2999L94.4234 78.3749C94.4984 78.4499 94.4984 78.5249 94.5734 78.5249V78.5999C94.9484 78.8999 95.4734 79.0499 95.9234 79.0499H101.698H101.773H109.798H109.873H123.073C124.198 79.0499 125.098 78.1499 125.098 77.0249V49.9499C125.098 48.8249 124.198 47.9249 123.073 47.9249H95.9234C95.0234 47.9249 94.1984 48.5999 93.9734 49.4249V49.4999V49.5749V49.6499V49.7249V49.7999H93.8984V49.8749V49.9499V77.0249V77.0999V77.1749H93.9734V77.2499V77.3249ZM41.9234 105.525V119.775H108.073V82.4999H103.423V96.8999V96.9749V97.0499V108.075C103.423 111.975 100.273 115.125 96.3734 115.125H53.6234C49.7234 115.125 46.5734 111.975 46.5734 108.075V105.525H41.9234ZM41.9234 123.225V131.025C41.9234 133.5 43.9484 135.6 46.4984 135.6H103.498C106.048 135.6 108.073 133.5 108.073 131.025V123.225H41.9234ZM103.423 44.4749H108.073V30.2249H41.9234V67.4999H46.5734V41.9249C46.5734 38.0249 49.7234 34.8749 53.6234 34.8749H96.3734C100.273 34.8749 103.423 38.0249 103.423 41.9249V44.4749ZM108.073 26.7749V18.9749C108.073 16.4999 106.048 14.3999 103.498 14.3999H89.0984V15.8999C89.0984 18.6749 86.8484 20.8499 84.1484 20.8499H65.8484C63.1484 20.8499 60.8984 18.6749 60.8984 15.8999V14.3999H46.4984C43.9484 14.3999 41.9234 16.4999 41.9234 18.9749V26.7749H108.073ZM64.3484 14.3999V15.8999C64.3484 16.7999 65.0234 17.4749 65.8484 17.4749H84.1484C84.9734 17.4749 85.6484 16.7999 85.6484 15.8999V14.3999H64.3484ZM81.3734 131.1H68.0234C67.1234 131.1 66.3734 130.35 66.3734 129.375C66.3734 128.475 67.1234 127.725 68.0234 127.725H81.3734C82.3484 127.725 83.0984 128.475 83.0984 129.375C83.0984 130.35 82.3484 131.1 81.3734 131.1ZM49.4984 102.075H54.0734C55.1234 102.075 56.0984 101.175 56.0984 100.05V97.5749L50.9234 92.3999L45.4484 97.9499L48.5984 101.1L49.1984 101.7H49.2734V101.775C49.3484 101.85 49.4234 101.925 49.4984 102.075ZM56.0984 92.6999V72.9749C56.0984 72.5999 56.0234 72.2999 55.8734 72.0749C55.7984 71.9999 55.7984 71.9999 55.7984 71.9249L55.7234 71.8499V71.7749H55.6484V71.6999L55.5734 71.6249V71.5499H55.4984L55.4234 71.4749L55.3484 71.3999L55.2734 71.3249H55.1984V71.2499H55.1234L55.0484 71.1749H54.9734V71.0999H54.8984C54.6734 71.0249 54.3734 70.9499 54.0734 70.9499H26.9234C25.7984 70.9499 24.8984 71.8499 24.8984 72.9749V92.0999L31.0484 85.9499C31.7234 85.2749 32.8484 85.2749 33.4484 85.9499L43.0484 95.4749L49.7234 88.7999C50.3984 88.1249 51.5234 88.1249 52.1234 88.7999L56.0984 92.6999ZM93.9734 82.1249C93.8984 82.0499 93.8234 82.0499 93.7484 81.9749L93.9734 82.1249ZM43.4984 87.8999C39.8234 87.8999 36.8234 84.8999 36.8234 81.2249C36.8234 77.5499 39.8234 74.5499 43.4984 74.5499C47.1734 74.5499 50.1734 77.5499 50.1734 81.2249C50.1734 84.8999 47.1734 87.8999 43.4984 87.8999ZM43.4984 77.9249C41.6984 77.9249 40.1984 79.4249 40.1984 81.2249C40.1984 83.0249 41.6984 84.5249 43.4984 84.5249C45.2984 84.5249 46.7984 83.0249 46.7984 81.2249C46.7984 79.4249 45.2984 77.9249 43.4984 77.9249ZM119.248 57.2999H108.373C107.473 57.2999 106.648 56.5499 106.648 55.5749C106.648 54.6749 107.473 53.8499 108.373 53.8499H119.248C120.148 53.8499 120.898 54.6749 120.898 55.5749C120.898 56.5499 120.148 57.2999 119.248 57.2999ZM102.898 57.2999H99.8234C98.8484 57.2999 98.0984 56.5499 98.0984 55.5749C98.0984 54.6749 98.8484 53.8499 99.8234 53.8499H102.898C103.873 53.8499 104.623 54.6749 104.623 55.5749C104.623 56.5499 103.873 57.2999 102.898 57.2999ZM119.248 65.1749H116.473C115.498 65.1749 114.748 64.4249 114.748 63.5249C114.748 62.5499 115.498 61.7999 116.473 61.7999H119.248C120.148 61.7999 120.898 62.5499 120.898 63.5249C120.898 64.4249 120.148 65.1749 119.248 65.1749ZM109.498 65.1749H99.8234C98.8484 65.1749 98.0984 64.4249 98.0984 63.5249C98.0984 62.5499 98.8484 61.7999 99.8234 61.7999H109.498C110.398 61.7999 111.223 62.5499 111.223 63.5249C111.223 64.4249 110.398 65.1749 109.498 65.1749ZM119.248 73.1249H110.848C109.948 73.1249 109.123 72.3749 109.123 71.3999C109.123 70.4999 109.948 69.6749 110.848 69.6749H119.248C120.148 69.6749 120.898 70.4999 120.898 71.3999C120.898 72.3749 120.148 73.1249 119.248 73.1249ZM103.723 73.1249H99.8234C98.8484 73.1249 98.0984 72.3749 98.0984 71.3999C98.0984 70.4999 98.8484 69.6749 99.8234 69.6749H103.723C104.623 69.6749 105.448 70.4999 105.448 71.3999C105.448 72.3749 104.623 73.1249 103.723 73.1249Z" fill="#0F73F6"/>
</symbol>
<symbol id="pen" width="32" height="32" viewBox="0 0 32 32" fill="none">
<g clip-path="url(#clip0_3364_7584)">
<path d="M31.7228 23.2826L28.4428 21.6426L26.3553 16.2126C26.3307 16.1484 26.2932 16.0899 26.245 16.0409C26.1968 15.9918 26.1391 15.9533 26.0753 15.9276L13.1228 10.7501C13.0322 10.714 12.9331 10.7052 12.8376 10.7248C12.7421 10.7443 12.6544 10.7913 12.5853 10.8601L10.8578 12.5876C10.79 12.6567 10.7437 12.7441 10.7246 12.8391C10.7056 12.9341 10.7145 13.0326 10.7503 13.1226L15.9278 26.0751C15.9535 26.1388 15.9921 26.1966 16.0411 26.2448C16.0902 26.2929 16.1486 26.3305 16.2128 26.3551L21.6428 28.4426L23.2828 31.7226C23.3173 31.7949 23.3688 31.8578 23.4327 31.9061C23.4967 31.9544 23.5713 31.9866 23.6503 32.0001C23.6769 32.0025 23.7037 32.0025 23.7303 32.0001C23.8627 31.9995 23.9895 31.9465 24.0828 31.8526L31.8528 24.0826C31.91 24.0274 31.9532 23.9594 31.9789 23.8841C32.0045 23.8089 32.0119 23.7287 32.0003 23.6501C31.9869 23.571 31.9547 23.4964 31.9064 23.4325C31.8581 23.3685 31.7951 23.3171 31.7228 23.2826ZM11.7978 13.0576L12.0753 12.7826L18.5228 19.2301C18.0979 19.8322 17.9144 20.5718 18.0086 21.3027C18.1027 22.0336 18.4677 22.7025 19.0314 23.1773C19.595 23.652 20.3163 23.898 21.0526 23.8665C21.7888 23.835 22.4865 23.5284 23.0076 23.0073C23.5287 22.4862 23.8353 21.7886 23.8667 21.0523C23.8982 20.3161 23.6523 19.5948 23.1775 19.0311C22.7028 18.4675 22.0338 18.1025 21.3029 18.0083C20.572 17.9141 19.8324 18.0976 19.2303 18.5226L12.7828 12.0751L13.0578 11.7976L25.5003 16.7751L27.4628 21.8801L21.8803 27.4626L16.7753 25.5001L11.7978 13.0576ZM20.9253 18.9826C21.3747 18.9832 21.8099 19.1397 22.1569 19.4253C22.5038 19.7108 22.7411 20.1079 22.8281 20.5487C22.9152 20.9896 22.8467 21.447 22.6343 21.843C22.422 22.239 22.0789 22.5492 21.6635 22.7206C21.2481 22.8921 20.7861 22.9142 20.3563 22.7832C19.9264 22.6523 19.5553 22.3763 19.306 22.0024C19.0568 21.6285 18.9449 21.1797 18.9895 20.7325C19.034 20.2854 19.2322 19.8675 19.5503 19.5501C19.9153 19.1862 20.4099 18.9821 20.9253 18.9826ZM23.8678 30.6551L22.6178 28.1551L28.1503 22.6226L30.6503 23.8726L23.8678 30.6551Z" fill="#0F73F6"/>
<path d="M9.56209 26.7499C9.46647 26.6596 9.3399 26.6092 9.20833 26.6092C9.07677 26.6092 8.9502 26.6596 8.85458 26.7499L8.21959 27.3849C6.52503 25.0851 5.59021 22.3138 5.54539 19.4574C5.50058 16.6011 6.34801 13.8018 7.96958 11.4499C8.45541 11.7173 9.01478 11.82 9.56388 11.7426C10.113 11.6653 10.6222 11.4121 11.0153 11.021C11.4084 10.6299 11.6641 10.1219 11.7442 9.57319C11.8243 9.02449 11.7245 8.46461 11.4596 7.97745C13.8115 6.35587 16.6107 5.50844 19.4671 5.55326C22.3235 5.59807 25.0947 6.53289 27.3946 8.22745L26.7496 8.85495C26.6566 8.94869 26.6045 9.07541 26.6046 9.20745C26.6042 9.27325 26.6168 9.33848 26.6417 9.3994C26.6666 9.46032 26.7032 9.51573 26.7496 9.56245L28.9546 11.7499C29.0483 11.8431 29.175 11.8953 29.3071 11.8953C29.4392 11.8953 29.5659 11.8431 29.6596 11.7499L31.8521 9.55745C31.8986 9.51101 31.9355 9.45586 31.9606 9.39517C31.9858 9.33447 31.9987 9.2694 31.9987 9.2037C31.9987 9.13799 31.9858 9.07292 31.9606 9.01223C31.9355 8.95153 31.8986 8.89638 31.8521 8.84995L29.6596 6.65745C29.5659 6.56432 29.4392 6.51205 29.3071 6.51205C29.175 6.51205 29.0483 6.56432 28.9546 6.65745L28.1071 7.49995C26.0183 5.92819 23.5489 4.94069 20.9523 4.63885C18.3558 4.33702 15.7257 4.73173 13.3321 5.78245L16.2146 2.90745C16.5414 3.06362 16.913 3.09897 17.2634 3.00722C17.6138 2.91548 17.9204 2.70258 18.1288 2.40629C18.3372 2.11001 18.4339 1.74948 18.4017 1.38868C18.3696 1.02788 18.2107 0.690131 17.9532 0.43535C17.6957 0.180569 17.3563 0.0252291 16.9952 -0.00311238C16.6341 -0.0314539 16.2746 0.0690358 15.9805 0.280529C15.6864 0.492022 15.4768 0.800846 15.3888 1.15221C15.3007 1.50358 15.34 1.87478 15.4996 2.19995L10.6346 7.07245C10.1406 6.7411 9.54694 6.59153 8.95495 6.6493C8.36296 6.70706 7.80939 6.96858 7.3888 7.38916C6.96821 7.80975 6.7067 8.36332 6.64894 8.95531C6.59117 9.5473 6.74074 10.141 7.07208 10.6349L2.19958 15.4999C1.87314 15.3409 1.50087 15.3027 1.14894 15.3922C0.796997 15.4817 0.48818 15.693 0.277359 15.9887C0.0665389 16.2844 -0.0326304 16.6452 -0.00252665 17.0071C0.0275771 17.369 0.185004 17.7085 0.441781 17.9653C0.698557 18.222 1.03805 18.3795 1.39994 18.4096C1.76183 18.4397 2.12267 18.3405 2.41834 18.1297C2.71401 17.9188 2.92537 17.61 3.01486 17.2581C3.10434 16.9062 3.06615 16.5339 2.90708 16.2074L5.78958 13.3324C4.73782 15.7254 4.34186 18.3551 4.64238 20.9517C4.94289 23.5482 5.92904 26.018 7.49958 28.1074L6.65458 28.9549C6.56146 29.0486 6.50919 29.1754 6.50919 29.3074C6.50919 29.4395 6.56146 29.5663 6.65458 29.6599L8.84708 31.8524C8.94042 31.9463 9.06719 31.9994 9.19958 31.9999C9.26556 32 9.3309 31.987 9.39183 31.9617C9.45276 31.9364 9.50807 31.8992 9.55459 31.8524L11.7496 29.6599C11.8427 29.5663 11.895 29.4395 11.895 29.3074C11.895 29.1754 11.8427 29.0486 11.7496 28.9549L9.56209 26.7499ZM29.3121 7.71245L30.7971 9.19745L29.3121 10.6824L27.8271 9.19745L29.3121 7.71245ZM16.4996 1.15745C16.5739 1.08254 16.6688 1.0314 16.7722 1.0105C16.8756 0.989599 16.9829 0.999891 17.0804 1.04007C17.178 1.08024 17.2614 1.14849 17.3201 1.23615C17.3788 1.32382 17.4101 1.42694 17.4101 1.53245C17.4101 1.63795 17.3788 1.74107 17.3201 1.82874C17.2614 1.9164 17.178 1.98465 17.0804 2.02483C16.9829 2.065 16.8756 2.07529 16.7722 2.05439C16.6688 2.0335 16.5739 1.98235 16.4996 1.90745C16.4503 1.85822 16.4112 1.79977 16.3845 1.73542C16.3578 1.67108 16.3441 1.6021 16.3441 1.53245C16.3441 1.46279 16.3578 1.39382 16.3845 1.32947C16.4112 1.26513 16.4503 1.20667 16.4996 1.15745ZM8.09959 8.09995C8.24477 7.95406 8.41735 7.8383 8.60741 7.7593C8.79747 7.68031 9.00126 7.63965 9.20709 7.63965C9.41291 7.63965 9.6167 7.68031 9.80676 7.7593C9.99682 7.8383 10.1694 7.95406 10.3146 8.09995C10.5341 8.31906 10.6836 8.59836 10.7443 8.9025C10.805 9.20663 10.7741 9.52193 10.6555 9.8085C10.5369 10.0951 10.336 10.34 10.0782 10.5124C9.82037 10.6847 9.51721 10.7767 9.20709 10.7767C8.89696 10.7767 8.5938 10.6847 8.33597 10.5124C8.07814 10.34 7.87723 10.0951 7.75866 9.8085C7.6401 9.52193 7.6092 9.20663 7.66989 8.9025C7.73057 8.59836 7.88012 8.31906 8.09959 8.09995ZM1.90958 17.2499C1.80751 17.3351 1.67728 17.3789 1.54451 17.3729C1.41173 17.3669 1.28599 17.3115 1.19201 17.2175C1.09802 17.1235 1.04258 16.9978 1.03659 16.865C1.03059 16.7322 1.07446 16.602 1.15958 16.4999C1.25964 16.4016 1.3943 16.3465 1.53458 16.3465C1.67486 16.3465 1.80953 16.4016 1.90958 16.4999C1.95887 16.5492 1.99797 16.6076 2.02464 16.672C2.05132 16.7363 2.06505 16.8053 2.06505 16.8749C2.06505 16.9446 2.05132 17.0136 2.02464 17.0779C1.99797 17.1423 1.95887 17.2007 1.90958 17.2499ZM9.20709 30.7824L7.72208 29.2974L9.20709 27.8124L10.6921 29.2974L9.20709 30.7824Z" fill="#0F73F6"/>
</g>
<defs>
<clipPath>
<rect width="32" height="32" fill="white"/>
</clipPath>
</defs>
</symbol>
<symbol id="phone" width="24" height="24" viewBox="0 0 24 24" fill="none">
<path d="M8.38028 8.85335C9.07627 10.303 10.0251 11.6616 11.2266 12.8632C12.4282 14.0648 13.7869 15.0136 15.2365 15.7096C15.3612 15.7694 15.4235 15.7994 15.5024 15.8224C15.7828 15.9041 16.127 15.8454 16.3644 15.6754C16.4313 15.6275 16.4884 15.5704 16.6027 15.4561C16.9523 15.1064 17.1271 14.9316 17.3029 14.8174C17.9658 14.3864 18.8204 14.3864 19.4833 14.8174C19.6591 14.9316 19.8339 15.1064 20.1835 15.4561L20.3783 15.6509C20.9098 16.1824 21.1755 16.4481 21.3198 16.7335C21.6069 17.301 21.6069 17.9713 21.3198 18.5389C21.1755 18.8242 20.9098 19.09 20.3783 19.6214L20.2207 19.779C19.6911 20.3087 19.4263 20.5735 19.0662 20.7757C18.6667 21.0001 18.0462 21.1615 17.588 21.1601C17.1751 21.1589 16.8928 21.0788 16.3284 20.9186C13.295 20.0576 10.4326 18.4332 8.04466 16.0452C5.65668 13.6572 4.03221 10.7948 3.17124 7.76144C3.01103 7.19699 2.93092 6.91477 2.9297 6.50182C2.92833 6.0436 3.08969 5.42311 3.31411 5.0236C3.51636 4.66357 3.78117 4.39876 4.3108 3.86913L4.46843 3.7115C4.99987 3.18006 5.2656 2.91433 5.55098 2.76999C6.11854 2.48292 6.7888 2.48292 7.35636 2.76999C7.64174 2.91433 7.90747 3.18006 8.43891 3.7115L8.63378 3.90637C8.98338 4.25597 9.15819 4.43078 9.27247 4.60655C9.70347 5.26945 9.70347 6.12403 9.27247 6.78692C9.15819 6.96269 8.98338 7.1375 8.63378 7.4871C8.51947 7.60142 8.46231 7.65857 8.41447 7.72538C8.24446 7.96281 8.18576 8.30707 8.26748 8.58743C8.29048 8.66632 8.32041 8.72866 8.38028 8.85335Z" stroke="#0265DC" stroke-width="2" stroke-linecap="round" stroke-linejoin="round"/>
</symbol>
<symbol id="presentation" width="150" height="150" viewBox="0 0 150 150" fill="none">
<path d="M72.3712 62.0563H50.2266V39.8555" stroke="#0F73F6" stroke-width="3.5" stroke-miterlimit="10" stroke-linecap="round" stroke-linejoin="round"/>
<path d="M146.777 6.33521H3.22266V22.0849H146.777V6.33521Z" stroke="#0F73F6" stroke-width="3.5" stroke-miterlimit="10" stroke-linecap="round" stroke-linejoin="round"/>
<path d="M10.7734 99.8557V24.2595" stroke="#0F73F6" stroke-width="3.5" stroke-miterlimit="10" stroke-linecap="round" stroke-linejoin="round"/>
<path d="M139.227 24.2595V99.8557" stroke="#0F73F6" stroke-width="3.5" stroke-miterlimit="10" stroke-linecap="round" stroke-linejoin="round"/>
<path d="M75 120.111V125.603" stroke="#0F73F6" stroke-width="3.5" stroke-miterlimit="10" stroke-linecap="round" stroke-linejoin="round"/>
<path d="M74.9997 143.665C79.5494 143.665 83.2377 139.968 83.2377 135.407C83.2377 130.847 79.5494 127.15 74.9997 127.15C70.45 127.15 66.7617 130.847 66.7617 135.407C66.7617 139.968 70.45 143.665 74.9997 143.665Z" stroke="#0F73F6" stroke-width="3.5" stroke-miterlimit="10" stroke-linecap="round" stroke-linejoin="round"/>
<path d="M50.2284 86.8876C63.9093 86.8876 74.9998 75.7707 74.9998 62.0573C74.9998 48.3439 63.9093 37.2271 50.2284 37.2271C36.5476 37.2271 25.457 48.3439 25.457 62.0573C25.457 75.7707 36.5476 86.8876 50.2284 86.8876Z" stroke="#0F73F6" stroke-width="3.5" stroke-miterlimit="10" stroke-linecap="round" stroke-linejoin="round"/>
<path d="M121.525 37.2271H89.5859V56.8035H121.525V37.2271Z" stroke="#0F73F6" stroke-width="3.5" stroke-miterlimit="10" stroke-linecap="round" stroke-linejoin="round"/>
<path d="M89.5859 70.4119H121.525" stroke="#0F73F6" stroke-width="3.5" stroke-miterlimit="10" stroke-linecap="round" stroke-linejoin="round"/>
<path d="M89.5859 83.3726H121.525" stroke="#0F73F6" stroke-width="3.5" stroke-miterlimit="10" stroke-linecap="round" stroke-linejoin="round"/>
<path d="M146.777 102.03H3.22266V117.78H146.777V102.03Z" stroke="#0F73F6" stroke-width="3.5" stroke-miterlimit="10" stroke-linecap="round" stroke-linejoin="round"/>
</symbol>
<symbol id="ruler" width="32" height="32" viewBox="0 0 32 32" fill="none">
<g clip-path="url(#clip0_3364_7582)">
<path d="M30.3999 21.3333H25.2329L29.7053 18.7507C30.074 18.5398 30.3435 18.1909 30.4543 17.7808C30.5654 17.3706 30.5085 16.9333 30.2964 16.5654L26.562 10.0991C26.3494 9.73145 25.999 9.46338 25.5886 9.35425C25.1782 9.24292 24.7402 9.30151 24.3735 9.5166L19.9001 12.0999L22.4819 7.62866C22.6963 7.26099 22.7551 6.823 22.6458 6.41162C22.5364 6.00024 22.2673 5.64941 21.8987 5.43701L15.4333 1.70264C15.0654 1.49121 14.6287 1.43481 14.2192 1.54565C13.8098 1.65649 13.4612 1.92529 13.25 2.29321L10.6667 6.76807V1.6001C10.6658 0.716797 9.94995 0.000976562 9.06665 0H1.6001C0.716797 0.000976562 0.000976562 0.716797 0 1.6001V30.3999C0.000976562 31.2832 0.716797 31.999 1.6001 32H30.3999C31.2832 31.999 31.999 31.2832 32 30.3999V22.9333C31.999 22.05 31.2832 21.3342 30.3999 21.3333ZM1.6001 21.3333C1.41797 21.3352 1.23755 21.3684 1.06665 21.4316V16H5.33643L2.25732 21.3333H1.6001ZM23.0996 21.3333H15.8064L13.363 17.1064L18.9048 13.9065L23.1694 21.2932L23.0996 21.3333ZM18.052 13.167L11.738 16.8132L7.50854 14.3711L10.7073 8.83081L18.0935 13.0952L18.052 13.167ZM9.6001 8.61523L6.32275 14.292C6.32104 14.2947 6.31836 14.2959 6.31665 14.2988L6.31372 14.3074L5.95239 14.9333H1.06665V8.53345H9.6001V8.61523ZM6.97534 15.2949L10.6714 17.4292L3.9104 21.3333H3.48901L6.97534 15.2949ZM11.9978 17.895L12.0046 17.8911L12.4395 17.6399L14.5745 21.3333H6.0437L11.9978 17.895ZM9.6001 22.3999H16V30.9333H9.6001V22.3999ZM17.0667 22.3999H23.4666V30.9333H17.0667V22.3999ZM24.9089 10.4392C25.0305 10.3674 25.1763 10.3477 25.3127 10.3843C25.4504 10.4214 25.5679 10.5112 25.6396 10.6345L29.3718 17.0974C29.4429 17.2202 29.4619 17.3662 29.4246 17.5032C29.3872 17.6399 29.2969 17.7563 29.1733 17.8259L24.093 20.7593L19.8286 13.3728L24.9089 10.4392ZM14.1748 2.82495C14.2446 2.70239 14.3606 2.61255 14.4971 2.57544C14.6333 2.53833 14.7788 2.55688 14.9014 2.6272L21.3633 6.35938C21.4875 6.43091 21.5784 6.54883 21.6157 6.68726C21.6523 6.82471 21.6321 6.97095 21.5593 7.09326L18.6272 12.1714L11.2407 7.90698L14.1748 2.82495ZM1.6001 1.06665H9.06665C9.36108 1.06714 9.59961 1.30566 9.6001 1.6001V7.46655H1.06665V1.6001C1.06714 1.30566 1.30566 1.06714 1.6001 1.06665ZM1.06665 30.3999V22.9333C1.06714 22.6389 1.30566 22.4004 1.6001 22.3999H8.53345V30.9333H1.6001C1.30566 30.9329 1.06714 30.6943 1.06665 30.3999ZM30.9333 30.3999C30.9329 30.6943 30.6943 30.9329 30.3999 30.9333H24.5334V22.3999H30.3999C30.6943 22.4004 30.9329 22.6389 30.9333 22.9333V30.3999Z" fill="#0F73F6"/>
<path d="M5.33252 24.5334C4.1543 24.5334 3.19922 25.4885 3.19922 26.6667C3.19922 27.845 4.1543 28.8 5.33252 28.8C6.51074 28.8 7.46582 27.845 7.46582 26.6667C7.4646 25.489 6.51025 24.5347 5.33252 24.5334ZM5.33252 27.7334C4.74341 27.7334 4.26587 27.2559 4.26587 26.6667C4.26587 26.0776 4.74341 25.6001 5.33252 25.6001C5.92163 25.6001 6.39917 26.0776 6.39917 26.6667C6.39868 27.2556 5.92139 27.7327 5.33252 27.7334Z" fill="#0F73F6"/>
</g>
<defs>
<clipPath>
<rect width="32" height="32" fill="white"/>
</clipPath>
</defs>
</symbol>
<symbol id="shopping-bag" width="24" height="24" viewBox="0 0 24 24" fill="none">
<path d="M15.9984 9V6C15.9984 3.79086 14.2076 2 11.9984 2C9.78928 2 7.99842 3.79086 7.99842 6V9M3.59042 10.352L2.99042 16.752C2.81982 18.5717 2.73452 19.4815 3.03647 20.1843C3.30171 20.8016 3.76653 21.3121 4.35643 21.6338C5.02794 22 5.94178 22 7.76946 22H16.2274C18.055 22 18.9689 22 19.6404 21.6338C20.2303 21.3121 20.6951 20.8016 20.9604 20.1843C21.2623 19.4815 21.177 18.5717 21.0064 16.752L20.4064 10.352C20.2624 8.81535 20.1903 8.04704 19.8448 7.46616C19.5404 6.95458 19.0908 6.54511 18.553 6.28984C17.9424 6 17.1707 6 15.6274 6L8.36946 6C6.82611 6 6.05443 6 5.44383 6.28984C4.90608 6.54511 4.45642 6.95458 4.15208 7.46616C3.80651 8.04704 3.73448 8.81534 3.59042 10.352Z" stroke="#F8F7FF" stroke-width="2" stroke-linecap="round" stroke-linejoin="round"/>
</symbol>
<symbol id="telegram" width="24" height="24" viewBox="0 0 24 24" fill="none">
<path d="M23.5468 2.42273C23.1374 2.11452 22.4944 2.07042 21.8295 2.30739H21.8285C21.1292 2.55649 2.03537 9.82768 1.25808 10.1247C1.11671 10.1684 -0.118008 10.5774 0.00917513 11.4885C0.122712 12.3099 1.11507 12.6501 1.23625 12.6893L6.0905 14.165C6.41255 15.1168 7.59977 18.6283 7.86233 19.3785C8.02608 19.8462 8.293 20.4607 8.7608 20.5871C9.17128 20.7277 9.57957 20.5993 9.84376 20.4151L12.8116 17.9712L17.6025 21.2884L17.7166 21.349C18.0419 21.4769 18.3536 21.5409 18.6511 21.5409C18.8809 21.5409 19.1014 21.5026 19.3121 21.426C20.0299 21.1643 20.317 20.5571 20.347 20.4883L23.9256 3.97399C24.144 3.09199 23.8405 2.64323 23.5468 2.42273ZM10.3716 14.7553L8.73405 18.6322L7.0965 13.786L19.6511 5.54754L10.3716 14.7553Z" fill="#0D0D15"/>
</symbol>
<symbol id="templates" width="48" height="48" viewBox="0 0 48 48" fill="none">
<mask style="mask-type:luminance" maskUnits="userSpaceOnUse" x="0" y="0" width="48" height="48">
<path d="M0 3.8147e-06H48V48H0V3.8147e-06Z" fill="white"/>
</mask>
<g mask="url(#mask0_4410_2120)">
<path d="M13.5263 45.7721H32.0357C32.2908 45.7721 32.5035 45.5622 32.5035 45.3044V44.2068C32.5035 43.3431 31.7966 42.6388 30.9355 42.6388H14.6238C13.7628 42.6388 13.0586 43.3431 13.0586 44.2068V45.3044C13.0586 45.5622 13.2685 45.7721 13.5263 45.7721Z" stroke="#0265DC" stroke-width="1.12" stroke-miterlimit="10" stroke-linecap="round" stroke-linejoin="round"/>
<path d="M16.5547 42.6388L17.8064 38.4532M27.7587 38.4532L29.0077 42.6388" stroke="#0265DC" stroke-width="1.12" stroke-miterlimit="10" stroke-linecap="round" stroke-linejoin="round"/>
<path d="M5.8125 34.8973H36.1053" stroke="#0265DC" stroke-width="1.12" stroke-miterlimit="10" stroke-linecap="round" stroke-linejoin="round"/>
<path d="M0.703125 26.1248C0.703125 26.8052 1.2585 27.3632 1.93884 27.3632H29.8132C30.4936 27.3632 31.049 26.8052 31.049 26.1248V3.46375C31.049 2.78341 30.4936 2.22804 29.8132 2.22804H1.93884C1.2585 2.22804 0.703125 2.78341 0.703125 3.46375V26.1248Z" stroke="#0265DC" stroke-width="1.12" stroke-miterlimit="10" stroke-linecap="round" stroke-linejoin="round"/>
<path d="M21.1622 38.4531H7.09341C6.38916 38.4531 5.8125 37.8765 5.8125 37.1722V27.3631M36.1053 38.4531H24.3964M31.0507 14.9098H38.4757C39.1799 14.9098 39.7567 15.4864 39.7567 16.1907V28.9922" stroke="#0265DC" stroke-width="1.12" stroke-miterlimit="10" stroke-linecap="round" stroke-linejoin="round"/>
<path d="M17.5012 8.78674H31.0491M0.703125 8.78674H14.2537" stroke="#0265DC" stroke-width="1.12" stroke-miterlimit="10" stroke-linecap="round" stroke-linejoin="round"/>
<path d="M27.332 5.50479V5.51013" stroke="#0265DC" stroke-width="1.12" stroke-miterlimit="10" stroke-linecap="round" stroke-linejoin="round"/>
<path d="M23.8555 5.50479V5.51013" stroke="#0265DC" stroke-width="1.12" stroke-miterlimit="10" stroke-linecap="round" stroke-linejoin="round"/>
<path d="M20.3789 5.50479V5.51013" stroke="#0265DC" stroke-width="1.12" stroke-miterlimit="10" stroke-linecap="round" stroke-linejoin="round"/>
<path d="M4.42188 5.50479L11.6184 5.51013" stroke="#0265DC" stroke-width="1.12" stroke-miterlimit="10" stroke-linecap="round" stroke-linejoin="round"/>
<path d="M26.9542 12.4091H16.5421C16.2817 12.4091 16.0664 12.6218 16.0664 12.8848V16.0235C16.0664 16.2865 16.2817 16.5017 16.5421 16.5017H26.9542C27.2146 16.5017 27.4298 16.2865 27.4298 16.0235V12.8848C27.4298 12.6218 27.2146 12.4091 26.9542 12.4091Z" stroke="#0265DC" stroke-width="1.12" stroke-miterlimit="10" stroke-linecap="round" stroke-linejoin="round"/>
<path d="M27.4297 20.411H16.0664" stroke="#0265DC" stroke-width="1.12" stroke-miterlimit="10" stroke-linecap="round" stroke-linejoin="round"/>
<path d="M21.6126 23.741H27.4297M16.0664 23.741H17.8017" stroke="#0265DC" stroke-width="1.12" stroke-miterlimit="10" stroke-linecap="round" stroke-linejoin="round"/>
<path d="M41.6997 42.9604H41.6758" stroke="#0265DC" stroke-width="1.12" stroke-miterlimit="10" stroke-linecap="round" stroke-linejoin="round"/>
<path d="M37.3997 45.7721H46.002C46.7141 45.7721 47.2988 45.1901 47.2988 44.4753V30.2865C47.2988 29.5743 46.7141 28.9923 46.002 28.9923H37.3997C36.6875 28.9923 36.1055 29.5743 36.1055 30.2865V44.4753C36.1055 45.1901 36.6875 45.7721 37.3997 45.7721Z" stroke="#0265DC" stroke-width="1.12" stroke-miterlimit="10" stroke-linecap="round" stroke-linejoin="round"/>
<path d="M4.80262 12.4091H11.9699C12.233 12.4091 12.4482 12.6217 12.4482 12.8848V23.2627C12.4482 23.5257 12.233 23.741 11.9699 23.741H4.80262C4.53956 23.741 4.32422 23.5257 4.32422 23.2627V12.8848C4.32422 12.6217 4.53956 12.4091 4.80262 12.4091Z" stroke="#0265DC" stroke-width="1.12" stroke-miterlimit="10" stroke-linecap="round" stroke-linejoin="round"/>
</g>
</symbol>
<symbol id="trigon" width="14" height="16" viewBox="0 0 14 16" fill="none">
<path d="M13.5 7.13397C14.1667 7.51887 14.1667 8.48112 13.5 8.86602L1.5 15.7942C0.833334 16.1791 0 15.698 0 14.9282L0 1.0718C0 0.301996 0.833333 -0.179129 1.5 0.205771L13.5 7.13397Z" fill="#0265DC"/>
</symbol>
<symbol id="trophy" width="24" height="24" viewBox="0 0 24 24" fill="none">
<path d="M12 15C8.68629 15 6 12.3137 6 9V3.44444C6 3.0306 6 2.82367 6.06031 2.65798C6.16141 2.38021 6.38021 2.16141 6.65798 2.06031C6.82367 2 7.0306 2 7.44444 2H16.5556C16.9694 2 17.1763 2 17.342 2.06031C17.6198 2.16141 17.8386 2.38021 17.9397 2.65798C18 2.82367 18 3.0306 18 3.44444V9C18 12.3137 15.3137 15 12 15ZM12 15V18M18 4H20.5C20.9659 4 21.1989 4 21.3827 4.07612C21.6277 4.17761 21.8224 4.37229 21.9239 4.61732C22 4.80109 22 5.03406 22 5.5V6C22 6.92997 22 7.39496 21.8978 7.77646C21.6204 8.81173 20.8117 9.62038 19.7765 9.89778C19.395 10 18.93 10 18 10M6 4H3.5C3.03406 4 2.80109 4 2.61732 4.07612C2.37229 4.17761 2.17761 4.37229 2.07612 4.61732C2 4.80109 2 5.03406 2 5.5V6C2 6.92997 2 7.39496 2.10222 7.77646C2.37962 8.81173 3.18827 9.62038 4.22354 9.89778C4.60504 10 5.07003 10 6 10M7.44444 22H16.5556C16.801 22 17 21.801 17 21.5556C17 19.5919 15.4081 18 13.4444 18H10.5556C8.59188 18 7 19.5919 7 21.5556C7 21.801 7.19898 22 7.44444 22Z" stroke="#F8F7FF" stroke-width="2" stroke-linecap="round" stroke-linejoin="round"/>
</symbol>
<symbol id="twitter" width="24" height="24" viewBox="0 0 24 24" fill="none">
<path d="M19.6441 6.18005C20.5012 5.64387 21.1425 4.7996 21.4483 3.80486C20.6429 4.30492 19.7618 4.65717 18.8429 4.84639C17.569 3.43621 15.5505 3.09303 13.9155 4.00862C12.2804 4.92421 11.4335 6.87189 11.848 8.76335C8.54901 8.59003 5.47544 6.95936 3.3921 4.2771C2.30485 6.2395 2.86046 8.74812 4.66182 10.01C4.01043 9.98806 3.37348 9.80351 2.80409 9.4717C2.80409 9.48971 2.80409 9.50772 2.80409 9.52573C2.80447 11.5699 4.18125 13.3307 6.09599 13.7358C5.49179 13.9079 4.85802 13.9332 4.24304 13.8099C4.78153 15.558 6.32121 16.7556 8.07611 16.7914C6.62265 17.9851 4.82769 18.6325 2.98002 18.6293C2.65252 18.6298 2.32528 18.6101 2 18.5703C3.87627 19.8319 6.06002 20.5016 8.29028 20.4992C11.3931 20.5215 14.375 19.2415 16.569 16.9455C18.763 14.6494 19.986 11.529 19.9644 8.28211C19.9644 8.09601 19.9603 7.91092 19.952 7.72683C20.7556 7.11913 21.4491 6.3663 22 5.50372C21.2514 5.85095 20.4573 6.07893 19.6441 6.18005Z" fill="#0D0D15"/>
</symbol>
</svg>
